<?xml version="1.0" standalone="yes"?>
<svg width="2560" height="1729">
<path style="fill:#ffffff; stroke:none;" d="M0 0L0 1729L2560 1729L2560 0L0 0z"/>
<path style="fill:#000000; stroke:none;" d="M1155 227C1162.53 250.8 1181.37 274.286 1193.72 296C1221.83 345.435 1250.3 394.666 1278.58 444L1544.58 908C1576.31 963.348 1608.22 1018.59 1639.85 1074L1664.42 1117C1667.03 1121.56 1670.31 1131.15 1675.33 1133.4C1685.77 1138.06 1706.53 1134 1718 1134L1820 1134L2179 1134C2163.51 1098.05 2139.08 1063.87 2119.42 1030C2081.94 965.419 2044.91 900.581 2007.42 836C1892.49 637.969 1778.14 439.579 1664.15 241C1635.41 190.936 1606.55 140.927 1577.58 91C1561.88 63.9552 1542.37 36.6984 1530 8C1514.46 12.485 1498.86 24.8993 1485 33.1998C1457.8 49.4861 1430.27 65.2277 1403 81.3966C1320.57 130.269 1236.73 176.97 1155 227M722 619L745.719 662L795.15 749L946.421 1015L992.424 1096L1013.5 1134L1014 1168L1014 1241L1123 1241L1123 1134L1518 1134L1506.28 1111L1480.42 1066L1392.85 913L1206.85 588L1102 405L1065 425.14L989 468.14L722 619M858 1134L838.201 1098L802.011 1036L703.576 867L659 790C648.81 791.839 638.895 800.043 630 805.15C609.945 816.663 589.94 828.278 570 839.989C504.861 878.246 438.904 915.146 374 953.799C352.476 966.618 330.668 979 309 991.576C303.169 994.96 288.104 1000.2 285.16 1006.39C283.855 1009.14 286.524 1012.68 287.77 1015C291.561 1022.04 295.49 1029.04 299.424 1036C312.363 1058.9 325.204 1081.89 337.769 1105C341.809 1112.43 347.188 1128.4 354.39 1132.97C362.139 1137.89 382.859 1134 392 1134L490 1134L858 1134M2479 1136.44C2469.66 1137.44 2461.13 1139.51 2453 1144.46C2446.77 1148.25 2441.45 1153.12 2437.16 1159C2408.16 1198.75 2443.89 1248.65 2490 1243.83C2556.6 1236.87 2545.53 1129.31 2479 1136.44M857 1137L857 1318C821.248 1298.1 785.003 1281.2 743 1281C698.598 1280.79 657.602 1286.84 618 1308.31C493.616 1375.74 469.954 1551.94 563.17 1655C608.963 1705.63 671.234 1727 738 1727C781.101 1727 819.551 1711.72 857 1692L857 1717L966 1717L966 1137L857 1137M1517 1137L1517 1318C1483.79 1291.66 1440.77 1281 1399 1281C1322.86 1281 1250.41 1312.34 1205.72 1376C1151.09 1453.82 1152.92 1562.59 1211.43 1638C1231.11 1663.37 1256.25 1685.63 1285 1700.24C1319.33 1717.7 1355.44 1727 1394 1727C1438.08 1727 1480.16 1716.85 1517 1692L1517 1717L1627 1717L1627 1137L1517 1137z"/>
<path style="fill:#000000; stroke:none;" d="M2473 1145.46C2418.48 1155.28 2433.04 1245.61 2489 1235.54C2543.45 1225.74 2528.99 1135.39 2473 1145.46z"/>
<path style="fill:#000000; stroke:none;" d="M2462 1161L2462 1220L2471 1220L2471 1196C2483.88 1196.01 2487.76 1208.76 2491 1220L2504 1220C2501.78 1214.67 2493.14 1202.18 2494.67 1196.51C2496.9 1188.22 2505.79 1185.88 2503.06 1175C2498.48 1156.77 2476.11 1161 2462 1161z"/>
<path style="fill:#000000; stroke:none;" d="M2471 1169L2471 1188C2476.4 1188 2484.92 1189.41 2489.49 1185.86C2493.45 1182.78 2492.7 1173.87 2488.72 1171.14C2483.98 1167.89 2476.43 1169 2471 1169z"/>
<path style="fill:#000000; stroke:none;" d="M1014 1279L1014 1714L1124 1714L1124 1279L1014 1279M2276 1577L2161 1577C2161.3 1591.77 2164.55 1607.13 2169.59 1621C2205.43 1719.67 2325.05 1736.9 2416 1721.75C2469.51 1712.84 2522.36 1686.56 2542.57 1633C2547.86 1618.99 2549.76 1604.76 2551.17 1590C2552.33 1577.85 2551.85 1566 2549.4 1554C2533.61 1476.78 2450.41 1460.14 2385 1449.25C2360.21 1445.12 2334.66 1442.51 2311 1433.57C2299.99 1429.42 2287.65 1422.58 2283.12 1411C2275 1390.25 2297.55 1372.58 2315 1367.75C2349.39 1358.22 2407.24 1358.86 2422.54 1398C2425.53 1405.65 2426 1413.89 2426 1422L2535 1422C2535 1407.2 2531.84 1391.76 2526.4 1378C2489.57 1284.89 2372.24 1265.81 2285 1287.63C2240.53 1298.75 2197.44 1326.58 2180.68 1371C2160.72 1423.93 2175.14 1491.31 2226 1521.55C2257.52 1540.29 2299.38 1546.03 2335 1551.92C2359.4 1555.95 2385.91 1557.6 2409 1567.01C2421.2 1571.99 2432.85 1580.6 2436.24 1594C2442.45 1618.61 2408.09 1638.62 2389 1643.85C2340.96 1657.01 2276.01 1634.14 2276 1577M359 1692L359 1717L469 1717L469 1285L359 1285L359 1318C319.517 1296.02 281.997 1281 236 1281C198.427 1281 162.809 1287.61 129 1304.76C101.09 1318.91 75.9 1339.59 56.3997 1364C-24.9542 1465.84 0.74028 1620.16 110 1691.3C158.658 1722.99 215.169 1732.03 272 1724.13C303.039 1719.81 332.923 1709.58 359 1692M2015 1691L2015 1717L2119 1717L2119 1285L2015 1285L2015 1319C1919.41 1245.53 1766.71 1279.82 1701.34 1376C1647.56 1455.15 1651.45 1565.01 1709.13 1641C1728.38 1666.35 1753.47 1687.95 1782 1702.25C1816.65 1719.61 1852.42 1727 1891 1727C1933 1727 1980.55 1716.03 2015 1691z"/>
<path style="fill:#ffffff; stroke:none;" d="M226 1379.42C169.05 1386.99 117.828 1431.79 112.17 1491C105.077 1565.23 172.809 1634.71 248 1625.71C306 1618.78 353.183 1574.1 358.83 1515C365.729 1442.8 301.323 1369.41 226 1379.42M723 1379.42C694.674 1383.19 669.159 1393.29 648.001 1413.09C577.73 1478.84 610.376 1599.46 703 1622.62C716.412 1625.98 731.211 1627.36 745 1625.71C801.754 1618.93 852.901 1571.49 856.911 1513C861.733 1442.64 796.574 1369.65 723 1379.42M1384 1379.42C1327.34 1386.96 1277.45 1430.66 1270.29 1489C1261.09 1563.87 1330.6 1634.73 1406 1625.71C1463.39 1618.85 1511.15 1574.74 1516.83 1516C1523.85 1443.45 1460.09 1369.31 1384 1379.42M1881 1379.42C1854.85 1382.87 1831.43 1391.2 1811 1408.44C1736.11 1471.63 1763.49 1596.1 1858 1621.99C1872.25 1625.89 1888.28 1627.47 1903 1625.71C1963.23 1618.51 2013.51 1566.38 2014.99 1505C2016.61 1437.53 1949.97 1370.34 1881 1379.42z"/>
</svg>
