<?xml version="1.0" standalone="no"?>
<!DOCTYPE svg PUBLIC "-//W3C//DTD SVG 20010904//EN"
 "http://www.w3.org/TR/2001/REC-SVG-20010904/DTD/svg10.dtd">
<svg version="1.0" xmlns="http://www.w3.org/2000/svg"
 width="1200.000000pt" height="1200.000000pt" viewBox="0 0 1200.000000 1200.000000"
 preserveAspectRatio="xMidYMid meet">

<g transform="translate(0.000000,1200.000000) scale(0.100000,-0.100000)"
fill="red" stroke="none">
<path d="M2230 11509 c0 -6 -7 -8 -16 -5 -8 3 -12 2 -9 -4 5 -8 -33 -6 -87 5
-10 2 -18 -1 -18 -5 0 -4 -9 -6 -20 -3 -12 3 -22 -1 -26 -11 -3 -9 -10 -13
-15 -10 -5 3 -9 1 -9 -5 0 -5 5 -13 10 -16 6 -3 10 -11 10 -16 0 -5 -10 -3
-22 5 -79 50 -160 42 -231 -23 -23 -21 -53 -41 -67 -45 -14 -3 -52 -14 -85
-22 -33 -9 -71 -26 -85 -38 -14 -12 -47 -28 -75 -34 -83 -21 -205 -105 -329
-227 -71 -70 -161 -198 -230 -328 -26 -51 -62 -112 -78 -137 -17 -24 -31 -55
-33 -68 -1 -12 -11 -33 -22 -45 -25 -27 -47 -69 -63 -122 -7 -22 -25 -68 -41
-102 -16 -34 -29 -72 -29 -83 0 -12 -7 -34 -15 -51 -9 -16 -13 -34 -10 -39 3
-6 3 -16 -1 -22 -8 -13 -10 -20 -20 -82 -4 -24 -3 -36 3 -33 6 4 1 -11 -9 -33
-11 -21 -21 -54 -23 -72 -15 -130 -20 -158 -41 -198 -25 -48 -30 -65 -15 -55
5 3 12 1 15 -4 4 -5 -8 -23 -26 -40 -29 -27 -31 -33 -21 -50 10 -16 10 -25 -2
-48 -8 -16 -10 -30 -5 -33 5 -3 3 -17 -5 -33 -8 -15 -10 -25 -5 -22 14 9 12
-1 -5 -36 -9 -16 -15 -35 -14 -42 4 -29 -2 -47 -15 -47 -22 0 -27 -27 -6 -33
26 -7 73 -85 80 -135 6 -34 4 -42 -7 -38 -11 5 -11 1 -2 -15 9 -18 7 -25 -15
-45 l-25 -24 -15 22 c-8 13 -26 49 -40 81 -30 66 -19 75 40 31 19 -15 36 -25
38 -23 3 2 -18 20 -45 39 -49 35 -49 35 -45 81 5 45 4 47 -25 53 -18 3 -41 0
-57 -8 -30 -16 -62 -64 -55 -83 3 -7 0 -13 -5 -13 -12 0 -19 -32 -27 -120 -6
-77 -8 -86 -24 -125 -48 -114 -63 -235 -42 -330 7 -29 7 -30 19 -8 6 12 18 49
26 83 8 33 28 82 44 108 17 26 37 73 46 104 28 99 73 97 74 -2 1 -39 5 -49 38
-76 l37 -32 -36 -13 c-21 -7 -37 -19 -37 -26 0 -7 -11 -30 -23 -51 -26 -41
-57 -125 -57 -154 0 -10 6 -21 14 -24 8 -3 11 -15 8 -30 -3 -16 -9 -23 -18
-20 -19 7 -30 -42 -15 -63 6 -9 14 -23 18 -31 13 -27 28 -37 60 -37 45 0 71
-25 65 -63 -2 -17 0 -36 5 -43 6 -6 15 -32 22 -58 12 -44 13 -45 52 -44 46 1
49 -6 13 -32 -26 -20 -27 -19 -51 5 -14 13 -30 21 -39 18 -8 -3 -13 -2 -10 3
3 5 -1 14 -9 21 -13 11 -14 10 -9 -4 3 -9 4 -16 1 -16 -9 0 -58 110 -62 138
-1 15 -3 30 -4 34 0 5 -4 7 -8 6 -5 0 -17 2 -28 6 -11 4 -33 13 -48 18 -15 6
-39 25 -53 42 -24 29 -25 30 -19 6 4 -14 18 -42 32 -62 14 -20 26 -49 27 -63
0 -14 5 -25 9 -25 5 0 6 -4 3 -8 -5 -9 42 -133 65 -171 12 -20 12 -24 -5 -37
-11 -8 -14 -14 -8 -14 17 0 15 -25 -3 -40 -17 -14 -21 -35 -5 -25 6 3 10 -1
10 -9 0 -9 -6 -16 -14 -16 -15 0 -29 -50 -26 -92 1 -16 -3 -28 -8 -28 -6 0
-13 -21 -16 -47 -8 -66 -11 -82 -19 -89 -11 -12 -8 -44 4 -44 6 0 9 7 6 15 -4
8 -2 17 4 21 5 3 7 13 4 23 -3 9 3 26 13 37 10 10 17 27 16 37 -1 12 -1 13 3
2 2 -8 9 -13 14 -10 5 4 9 2 9 -4 0 -5 -5 -13 -10 -16 -6 -4 -8 -16 -5 -28 5
-16 4 -18 -3 -8 -15 21 -28 5 -26 -31 1 -18 -2 -38 -7 -44 -5 -7 -9 -16 -7
-20 1 -5 -1 -25 -5 -44 -4 -19 -9 -46 -12 -59 -9 -48 -16 -33 -10 25 3 41 2
51 -4 34 -12 -33 -13 -100 -2 -100 5 0 12 -16 15 -36 6 -28 10 -33 21 -24 10
8 14 8 17 -1 3 -8 9 -7 20 5 20 20 28 20 28 2 0 -8 -7 -16 -15 -20 -11 -4 -14
-17 -10 -51 3 -40 2 -45 -11 -34 -20 16 -25 8 -31 -46 -4 -33 -9 -43 -17 -36
-9 7 -11 1 -8 -24 3 -21 10 -35 18 -35 8 0 14 -4 14 -10 0 -5 -3 -10 -7 -10
-5 0 -6 -25 -5 -55 2 -30 8 -55 12 -55 5 0 12 -17 15 -37 21 -130 59 -298 81
-358 32 -87 39 -101 54 -97 7 2 10 -3 7 -11 -9 -23 54 -137 109 -198 29 -32
64 -1 42 36 -3 6 -9 26 -13 45 -7 31 -6 33 9 21 14 -12 16 -11 17 5 0 13 6 7
16 -15 16 -39 10 -66 -69 -291 -44 -124 -61 -162 -89 -199 -16 -20 -19 -21
-19 -6 0 16 -7 17 -67 12 -38 -4 -78 -7 -90 -7 -19 0 -23 -6 -23 -29 0 -16 -4
-41 -9 -54 -13 -32 20 -79 145 -207 51 -52 124 -140 164 -195 61 -86 180 -228
284 -339 27 -29 28 -30 12 -4 -18 30 -22 52 -5 28 8 -11 12 -12 16 -2 2 6 9
10 14 6 5 -3 9 7 9 21 0 15 4 24 10 20 6 -3 10 -2 10 4 0 5 -5 13 -10 16 -6 4
-3 17 10 34 10 16 17 31 14 34 -3 3 3 22 14 44 11 21 23 54 27 73 4 19 16 62
26 94 10 33 19 70 19 83 0 14 4 21 10 18 5 -3 10 -1 10 4 0 6 -5 11 -11 11 -8
0 -8 4 -1 13 5 6 13 39 17 72 5 32 14 65 21 73 8 7 14 23 14 34 0 11 9 33 21
49 17 24 24 28 36 18 11 -10 13 -10 11 0 -5 20 35 23 49 4 12 -16 13 -16 13 1
0 16 2 16 30 -1 17 -9 30 -21 30 -26 0 -5 7 -7 15 -3 10 3 17 -3 21 -19 3 -13
12 -26 20 -29 9 -3 12 -1 9 4 -11 18 12 10 30 -10 10 -11 23 -20 29 -20 18 -1
86 -57 78 -65 -4 -4 2 -5 14 -1 14 4 27 0 39 -14 10 -11 26 -20 37 -20 10 0
18 -4 18 -10 0 -10 63 -42 76 -38 5 1 20 -4 34 -12 14 -7 38 -15 54 -17 16 -2
35 -8 42 -14 7 -5 15 -6 17 -2 5 7 62 9 62 3 0 -2 12 -3 28 -4 16 -1 27 3 27
11 0 9 6 10 25 3 33 -13 24 10 -17 42 -60 46 -82 67 -84 83 -1 9 -12 26 -24
38 -33 34 -95 119 -111 152 -14 30 -52 49 -46 23 2 -7 -1 -3 -7 10 -6 12 -16
20 -23 18 -7 -3 -13 1 -13 9 0 8 -4 15 -8 15 -5 0 -14 10 -20 23 -6 12 -11 16
-11 10 -1 -22 -16 -14 -34 17 -10 17 -25 30 -33 30 -8 0 -14 9 -14 20 0 11 -7
23 -15 27 -16 6 -51 62 -47 76 1 4 -2 7 -8 7 -5 0 -19 21 -31 48 -12 26 -30
53 -41 61 -11 7 -17 20 -14 27 3 8 -1 17 -9 20 -8 4 -15 12 -15 20 0 26 -32
93 -43 91 -7 -1 -11 4 -10 11 2 6 -1 12 -6 12 -5 0 -16 30 -25 66 -9 36 -24
77 -33 90 -8 14 -13 27 -10 30 3 3 1 18 -4 32 -5 14 -11 37 -13 51 -2 14 -7
35 -12 45 -5 13 -4 17 3 13 7 -4 10 3 9 18 0 14 -5 25 -9 25 -5 0 -6 4 -3 9 4
5 1 11 -5 13 -8 3 -9 10 -2 23 5 11 7 31 3 45 -7 30 -1 70 11 70 5 0 9 -5 9
-11 0 -5 5 -7 11 -3 7 4 7 10 1 16 -7 7 -4 16 9 29 23 23 38 24 45 4 4 -8 10
-12 15 -9 5 3 7 9 5 13 -3 3 11 17 30 30 19 13 34 29 34 36 0 7 7 19 17 26 15
13 15 12 6 -6 -14 -27 -6 -44 18 -38 12 3 16 9 11 12 -5 3 -6 28 -2 59 3 29 5
70 3 90 -1 20 -3 49 -3 65 0 15 -4 27 -9 27 -5 0 -9 12 -7 28 1 15 -1 32 -6
39 -5 6 -5 14 2 18 17 10 13 48 -5 41 -8 -3 -15 -1 -15 4 0 6 3 10 8 10 4 0 7
13 7 29 0 16 -3 27 -7 25 -3 -2 -11 10 -17 26 -8 24 -7 29 2 23 9 -5 9 -3 1 8
-6 8 -11 30 -10 50 1 24 -2 35 -10 32 -6 -2 -14 3 -17 11 -4 9 -1 16 5 16 7 0
5 7 -4 18 -9 10 -14 35 -13 64 1 41 -1 46 -14 35 -12 -9 -13 -9 -7 1 4 6 3 12
-2 12 -5 0 -9 31 -8 69 2 55 -1 68 -12 63 -12 -4 -12 -2 0 17 10 16 10 23 1
29 -6 4 -10 20 -9 35 2 19 -1 27 -13 28 -10 0 -12 2 -3 6 6 2 12 9 12 14 0 6
-6 7 -13 3 -8 -5 -8 -2 2 9 9 11 10 17 2 17 -13 0 -10 21 4 33 6 5 0 6 -12 2
-20 -5 -21 -4 -13 32 5 21 8 50 6 66 -2 15 0 27 5 27 4 0 6 10 4 22 -3 12 0
27 6 35 6 7 9 20 5 28 -3 8 -1 15 4 15 14 0 12 44 -3 59 -10 11 -9 12 1 7 14
-8 42 10 42 27 0 7 -4 7 -12 -1 -7 -7 -17 -12 -22 -12 -22 0 17 25 39 25 24 1
24 0 8 -25 -16 -25 -16 -25 14 3 35 33 46 34 39 5 -3 -13 -3 -17 0 -10 3 6 10
10 15 6 5 -3 9 2 9 10 0 9 3 16 6 16 12 0 44 -43 45 -59 0 -10 2 -12 6 -3 2 6
13 12 24 12 12 0 19 7 19 19 0 11 9 22 19 26 12 4 18 12 14 21 -4 10 0 12 11
8 19 -7 21 8 5 37 -10 19 -9 20 13 5 23 -15 61 -6 45 11 -5 4 -12 1 -17 -7 -6
-8 -10 -10 -10 -5 0 6 4 16 9 24 8 12 12 12 25 2 13 -11 16 -11 16 3 0 9 6 16
14 16 8 0 18 5 22 12 4 7 3 8 -5 4 -6 -4 -18 -1 -26 8 -17 17 -20 52 -5 61 6
3 10 13 10 21 0 8 -4 12 -10 9 -5 -3 -10 -2 -10 4 0 5 5 13 10 16 6 3 10 15
10 25 0 10 5 22 10 25 6 4 10 3 9 -2 -4 -23 3 -25 17 -5 8 12 20 19 26 16 6
-4 39 -6 72 -5 58 2 201 -35 231 -59 5 -4 30 -13 54 -20 30 -8 57 -25 81 -51
35 -39 65 -55 39 -21 -11 14 -9 13 9 -2 12 -11 30 -24 41 -30 10 -6 40 -28 67
-48 27 -21 56 -38 64 -38 8 0 27 -11 42 -24 14 -14 28 -23 31 -20 2 3 29 -9
58 -25 30 -17 79 -43 109 -57 30 -15 62 -30 71 -35 22 -10 43 -6 62 13 14 14
13 18 -18 48 -21 20 -38 29 -46 25 -8 -5 -10 -4 -5 3 4 7 1 12 -8 12 -9 0 -16
5 -16 10 0 6 -5 10 -11 10 -5 0 -7 -6 -3 -12 5 -7 -7 2 -25 20 -18 17 -37 32
-43 32 -5 0 -23 9 -39 21 -16 11 -33 18 -37 15 -5 -3 -18 3 -30 14 -11 11 -22
15 -24 9 -2 -5 -26 13 -53 40 -28 28 -56 51 -63 51 -7 0 -29 8 -50 18 -20 11
-50 18 -67 17 -16 0 -35 3 -41 7 -7 5 -16 8 -20 7 -20 -3 -34 2 -34 12 0 6 10
9 23 6 12 -3 38 -8 57 -12 l35 -6 -25 20 c-13 11 -27 19 -30 19 -26 -2 -41 4
-37 15 3 8 0 14 -6 15 -74 11 -94 16 -107 27 -10 8 -55 14 -125 17 -60 2 -117
8 -125 13 -8 5 -33 10 -55 11 -31 1 -41 5 -43 20 -2 14 -1 16 6 5 7 -9 12 -10
16 -2 4 6 0 14 -8 17 -12 5 -14 19 -11 67 3 33 9 65 15 71 15 15 12 26 -5 20
-8 -4 -15 -2 -15 4 0 5 10 13 23 17 22 6 22 7 -6 19 -24 11 -26 14 -13 25 19
16 10 41 -12 34 -12 -3 -13 -2 -5 4 7 5 14 19 16 32 2 13 11 29 19 35 14 10
12 14 -15 26 l-32 14 40 12 40 12 -32 1 -33 1 20 20 c12 12 18 26 14 32 -4 6
2 18 12 26 12 9 15 16 7 19 -7 3 -9 13 -4 31 4 15 6 32 4 39 -2 6 6 18 19 27
12 9 19 16 14 16 -5 0 -3 6 3 13 6 8 9 16 6 19 -6 6 71 88 82 88 5 0 19 8 33
17 30 21 50 25 122 26 38 1 59 5 62 14 3 7 20 13 39 13 38 0 48 6 40 26 -4 10
-25 14 -77 15 -75 1 -62 15 19 19 25 2 32 4 17 7 -29 6 -18 23 15 23 19 0 24
-4 19 -16 -5 -12 -2 -15 10 -10 8 3 22 6 30 6 9 0 12 5 8 11 -4 8 0 7 15 -1
12 -6 30 -9 39 -7 12 3 8 8 -16 17 -18 7 -31 15 -28 18 8 7 55 15 91 14 17 0
37 1 45 4 13 4 13 6 0 14 -13 8 -12 10 3 10 11 0 15 4 11 11 -5 8 1 10 20 7
14 -3 26 -1 26 3 0 5 -4 9 -10 9 -5 0 -10 4 -10 9 0 6 12 6 32 0 17 -5 34 -7
36 -4 8 7 -64 35 -90 35 -13 0 -29 4 -36 9 -18 11 30 20 83 15 55 -5 78 4 72
26 -4 16 2 18 42 17 49 -2 62 15 31 41 -13 11 -12 12 8 7 13 -4 22 -2 22 5 0
6 18 1 41 -11 34 -17 41 -18 36 -5 -9 22 8 29 35 15 22 -12 22 -11 6 8 -23 25
-23 34 -1 26 11 -4 14 -3 9 5 -5 9 -1 9 18 2 25 -9 49 5 30 19 -5 3 -16 15
-24 25 -13 18 -13 19 0 11 8 -4 23 -15 32 -23 14 -12 19 -12 31 0 13 11 13 16
-6 37 l-22 25 27 -17 c25 -16 27 -16 21 0 -5 12 -2 15 10 10 21 -8 22 0 2 19
-21 21 -19 33 4 27 16 -4 19 0 17 19 -2 13 -8 33 -14 45 -15 28 -15 30 3 30
10 0 13 -6 9 -19 -8 -26 5 -22 16 5 l9 22 7 -22 c3 -13 10 -23 14 -23 5 0 16
-3 26 -7 14 -5 16 -2 12 15 -8 28 10 18 22 -12 8 -21 8 -21 18 4 7 16 11 19
11 9 1 -9 7 -19 15 -22 10 -4 12 0 8 15 -7 27 16 15 29 -16 7 -16 8 -14 4 14
-4 29 -3 31 5 13 6 -16 15 -21 26 -16 13 5 15 2 10 -15 -6 -17 -4 -21 8 -16
10 4 18 -1 22 -11 4 -10 16 -15 33 -13 18 2 25 -1 23 -11 -3 -12 0 -12 12 -1
13 10 16 10 16 -4 0 -9 3 -15 8 -15 24 4 42 -3 42 -17 0 -8 5 -12 10 -9 6 3
10 2 10 -4 0 -5 -5 -11 -12 -13 -8 -3 -7 -11 5 -28 l16 -24 20 45 c12 24 21
40 21 35 0 -5 6 -4 13 2 6 5 23 8 37 7 14 -1 31 3 39 9 11 9 13 6 6 -14 -4
-14 -10 -32 -12 -40 -3 -8 4 -5 16 8 l20 23 -3 -23 c-2 -13 -8 -36 -15 -51
-15 -37 -14 -42 4 -27 12 10 15 10 15 0 0 -9 7 -7 22 6 12 10 18 13 13 5 -8
-14 -15 -71 -9 -71 2 0 12 10 24 22 14 15 20 18 20 7 1 -10 3 -10 11 3 11 19
37 14 55 -10 9 -13 12 -13 17 2 4 9 11 16 17 16 6 0 9 -4 6 -9 -3 -5 5 -11 19
-13 14 -3 25 -1 25 3 0 5 5 9 10 9 6 0 10 -9 10 -20 0 -11 5 -20 11 -20 5 0 7
-4 4 -10 -3 -5 -2 -10 4 -10 5 0 11 6 14 13 3 9 7 9 21 -2 14 -12 19 -11 38 5
21 19 21 19 9 -3 -18 -35 -14 -45 11 -32 18 10 20 9 15 -5 -11 -29 2 -46 29
-36 17 7 24 6 24 -2 0 -6 8 -4 18 5 23 21 33 22 26 2 -5 -11 -2 -13 10 -9 17
7 22 -11 6 -21 -15 -9 -2 -25 22 -25 13 0 18 -5 15 -14 -9 -24 17 -38 48 -26
25 9 26 9 15 -5 -7 -8 -9 -16 -4 -16 31 -4 41 -3 54 5 12 8 13 8 3 -4 -21 -23
-15 -30 15 -20 25 9 26 9 8 -5 -11 -8 -23 -15 -27 -15 -4 0 -9 -9 -12 -21 -4
-16 -2 -19 11 -14 9 4 26 9 37 12 17 4 15 0 -8 -21 -24 -22 -25 -26 -10 -26
11 0 24 5 31 12 7 7 12 8 12 2 0 -5 -5 -15 -11 -21 -9 -9 -5 -13 17 -18 45
-10 51 -13 27 -14 -12 -1 -25 -5 -28 -11 -6 -9 22 -13 80 -12 17 1 17 0 3 -4
-28 -8 -21 -17 24 -37 32 -13 39 -20 30 -29 -18 -18 -15 -28 8 -28 11 0 20 -5
20 -11 0 -6 7 -9 15 -5 9 3 15 0 15 -9 0 -8 5 -15 10 -15 6 0 10 4 10 9 0 5 7
17 16 25 14 15 14 16 -3 16 -17 1 -17 1 0 11 9 6 15 14 12 19 -3 4 -6 43 -7
85 -1 61 -5 78 -19 89 -11 8 -20 28 -22 52 -1 21 -6 45 -11 52 -9 15 2 72 15
72 5 0 9 -5 9 -12 0 -6 2 -9 5 -6 8 7 -38 124 -81 207 -26 50 -40 68 -48 62
-8 -7 -12 1 -12 29 -1 26 -12 55 -33 86 -17 27 -41 74 -53 106 -22 63 -32 75
-44 56 -4 -6 -2 -14 4 -16 15 -5 16 -52 2 -52 -5 0 -10 11 -10 25 0 14 -3 25
-8 25 -4 0 -7 15 -7 33 0 25 -4 31 -17 29 -14 -2 -17 3 -12 26 8 38 -17 63
-57 58 -31 -4 -31 -6 -14 52 7 23 -20 77 -51 103 -13 11 -14 9 -9 -17 l7 -29
-21 25 c-11 14 -21 28 -21 33 0 4 -5 7 -11 7 -8 0 -8 -4 0 -14 8 -9 8 -16 2
-20 -6 -4 -15 8 -20 26 -8 28 -9 29 -10 9 -1 -15 -5 -21 -10 -15 -9 10 -37
105 -34 115 1 4 -6 5 -17 2 -11 -3 -17 -10 -13 -16 3 -6 1 -7 -5 -3 -6 4 -9
13 -6 21 4 8 -1 17 -9 21 -9 3 -34 35 -56 70 -23 36 -46 62 -51 59 -6 -3 -10
-1 -10 5 0 7 -7 10 -15 6 -9 -3 -15 0 -15 9 0 8 -4 15 -10 15 -5 0 -10 6 -10
14 0 8 -7 16 -15 20 -8 3 -15 12 -15 21 0 8 -6 15 -12 15 -7 1 -25 17 -40 37
-16 20 -28 30 -28 22 0 -8 -8 2 -18 21 -13 26 -23 34 -40 33 -12 -2 -22 1 -22
5 0 15 -88 103 -94 94 -3 -6 1 -17 9 -25 8 -9 15 -19 15 -23 0 -14 -62 50 -71
74 -5 12 -14 22 -20 22 -7 0 -5 -9 5 -25 28 -43 17 -46 -20 -5 -20 22 -40 37
-45 34 -5 -3 -9 1 -9 9 0 7 -11 24 -25 37 -21 20 -25 21 -25 6 0 -9 -5 -14
-10 -11 -6 4 -7 12 -4 18 5 9 4 9 -6 0 -10 -9 -24 -3 -63 28 -44 36 -52 38
-60 24 -6 -11 -5 -26 2 -44 10 -21 5 -19 -26 14 -21 23 -49 55 -63 73 -14 17
-29 32 -33 32 -4 0 7 -18 24 -40 42 -53 27 -67 -16 -15 l-34 40 -11 -30 c-12
-30 -12 -30 -23 -7 -13 27 -31 29 -22 2 9 -29 -2 -25 -19 8 -14 25 -15 26 -16
5 0 -29 -20 -31 -20 -2 0 11 -4 18 -8 15 -5 -3 -21 2 -36 9 -16 8 -32 12 -37
9 -5 -3 -9 0 -9 5 0 6 -8 11 -18 11 -11 0 -27 9 -37 20 -21 24 -37 26 -29 5 8
-21 1 -19 -42 10 -37 25 -91 35 -78 14 5 -8 1 -8 -14 0 -26 14 -32 14 -32 0z
m-113 -51 c18 -20 18 -20 -20 -2 -39 19 -50 36 -18 27 11 -3 28 -14 38 -25z
m143 -3 c11 -13 10 -14 -4 -9 -9 3 -16 10 -16 15 0 13 6 11 20 -6z m465 -1325
c3 -5 2 -10 -4 -10 -5 0 -13 5 -16 10 -3 6 -2 10 4 10 5 0 13 -4 16 -10z m-25
-60 c0 -5 -2 -10 -4 -10 -3 0 -8 5 -11 10 -3 6 -1 10 4 10 6 0 11 -4 11 -10z
m640 -80 c0 -5 -5 -10 -11 -10 -5 0 -7 5 -4 10 3 6 8 10 11 10 2 0 4 -4 4 -10z
m827 -87 c-3 -10 -5 -4 -5 12 0 17 2 24 5 18 2 -7 2 -21 0 -30z m32 -85 c-9
-16 -14 -19 -17 -9 -2 7 2 17 9 22 20 13 21 11 8 -13z m-2259 -238 c0 -5 -2
-10 -4 -10 -3 0 -8 5 -11 10 -3 6 -1 10 4 10 6 0 11 -4 11 -10z m2120 0 c0 -5
-7 -10 -16 -10 -8 0 -12 5 -9 10 3 6 10 10 16 10 5 0 9 -4 9 -10z m-3580 -375
c7 -9 8 -15 2 -15 -5 0 -12 7 -16 15 -3 8 -4 15 -2 15 2 0 9 -7 16 -15z m1060
-616 c0 -6 -4 -7 -10 -4 -5 3 -10 11 -10 16 0 6 5 7 10 4 6 -3 10 -11 10 -16z
m-10 -23 c0 -3 -4 -8 -10 -11 -5 -3 -10 -1 -10 4 0 6 5 11 10 11 6 0 10 -2 10
-4z m-1150 -33 c-19 -65 -22 -68 -36 -42 -17 31 -17 35 2 53 26 26 44 20 34
-11z m1160 -8 c7 -8 8 -15 2 -15 -5 0 -15 7 -22 15 -7 8 -8 15 -2 15 5 0 15
-7 22 -15z m-45 -25 c3 -5 1 -10 -4 -10 -6 0 -11 5 -11 10 0 6 2 10 4 10 3 0
8 -4 11 -10z m-968 -146 c-3 -3 -12 -4 -19 -1 -8 3 -5 6 6 6 11 1 17 -2 13 -5z
m16 -29 c8 -18 -11 -31 -25 -17 -11 11 -3 32 12 32 4 0 10 -7 13 -15z m2098
-32 c12 -14 12 -16 0 -8 -11 6 -13 4 -8 -11 7 -19 7 -19 -8 0 -8 10 -12 23 -9
27 7 12 10 11 25 -8z m-2091 -13 c-24 -15 -37 -11 -16 5 11 8 22 12 25 9 3 -3
-1 -9 -9 -14z m20 -25 c0 -8 -4 -15 -10 -15 -5 0 -7 7 -4 15 4 8 8 15 10 15 2
0 4 -7 4 -15z m593 -55 c-7 -8 -22 24 -16 34 4 5 10 1 13 -10 4 -10 6 -21 3
-24z m-586 -62 c-2 -7 2 -21 11 -30 14 -16 13 -18 -1 -18 -10 0 -14 -5 -11
-15 4 -8 1 -15 -5 -15 -12 0 -15 48 -5 74 7 19 18 22 11 4z m-197 -160 c0 -5
-5 -8 -11 -8 -5 0 -7 5 -4 10 3 6 1 10 -4 10 -6 0 -11 8 -11 17 0 15 2 14 15
-3 8 -10 15 -22 15 -26z m49 -57 c-14 -4 -30 19 -22 33 3 5 12 1 20 -10 10
-13 10 -20 2 -23z m-74 19 c3 -5 1 -10 -4 -10 -6 0 -11 5 -11 10 0 6 2 10 4
10 3 0 8 -4 11 -10z m33 -37 c16 -16 16 -16 -1 -10 -14 5 -21 -1 -32 -26 -17
-38 -20 -23 -4 22 13 36 15 37 37 14z m-56 -95 c-7 -7 -12 -8 -12 -2 0 14 12
26 19 19 2 -3 -1 -11 -7 -17z m-36 -85 c-8 -15 -15 -22 -16 -15 0 17 20 55 27
49 2 -3 -2 -18 -11 -34z m104 3 c0 -3 -4 -8 -10 -11 -5 -3 -10 -1 -10 4 0 6 5
11 10 11 6 0 10 -2 10 -4z m-40 -146 c0 -5 -4 -10 -10 -10 -5 0 -10 5 -10 10
0 6 5 10 10 10 6 0 10 -4 10 -10z m-70 -10 c0 -5 -4 -10 -10 -10 -5 0 -10 5
-10 10 0 6 5 10 10 10 6 0 10 -4 10 -10z m-16 -98 c-8 -18 -12 -37 -9 -43 10
-15 -15 -100 -27 -93 -14 9 17 153 36 166 17 11 17 3 0 -30z m14 -127 c-3 -3
-9 2 -12 12 -6 14 -5 15 5 6 7 -7 10 -15 7 -18z m1032 1 c0 -3 -4 -8 -10 -11
-5 -3 -10 -1 -10 4 0 6 5 11 10 11 6 0 10 -2 10 -4z m-937 -56 c-3 -11 -10
-20 -17 -20 -6 0 -6 -4 3 -9 14 -9 7 -51 -10 -51 -5 0 -9 -5 -9 -11 0 -5 6 -7
13 -3 9 6 9 4 -1 -8 -8 -11 -9 -18 -3 -22 7 -5 7 -15 1 -32 -13 -33 -13 -47 0
-39 14 8 13 2 -5 -31 -17 -33 -20 -58 -5 -49 6 3 10 -1 10 -10 0 -11 -5 -15
-15 -11 -9 3 -15 0 -15 -10 0 -11 5 -14 16 -10 14 5 15 0 9 -40 -4 -26 -13
-54 -22 -62 -11 -11 -12 -17 -2 -22 8 -5 11 -34 10 -86 0 -44 3 -86 9 -94 7
-11 9 -6 9 20 -2 57 1 84 8 77 3 -4 7 -34 8 -67 1 -43 -2 -60 -11 -60 -15 0
-3 -52 18 -77 10 -12 9 -14 -8 -11 -14 2 -23 19 -36 68 -10 36 -18 80 -18 98
0 17 -5 32 -11 32 -8 0 -8 5 1 15 10 12 10 18 0 30 -8 9 -10 29 -7 49 4 24 2
34 -6 32 -7 -1 -9 -1 -4 1 4 3 7 14 7 26 0 16 -3 18 -9 8 -6 -9 -9 1 -9 28 -1
37 2 41 19 36 13 -4 19 -2 19 8 0 10 -8 13 -26 9 -19 -3 -25 -1 -20 7 4 6 3
11 -3 11 -6 0 -8 7 -5 15 5 12 10 13 20 4 15 -12 44 -6 44 10 0 6 -6 8 -13 5
-7 -2 -21 2 -32 10 -18 14 -18 15 -3 16 11 0 15 5 12 14 -3 8 -1 24 6 35 8 16
8 21 -2 21 -10 0 -10 2 0 9 7 4 14 22 14 39 1 18 5 32 10 32 4 0 18 20 30 45
23 46 40 61 31 25z m-122 -143 c-13 -13 -15 1 -4 30 7 17 8 17 11 -1 2 -10 -1
-23 -7 -29z m930 -174 c-12 -20 -14 -14 -5 12 4 9 9 14 11 11 3 -2 0 -13 -6
-23z m-771 -393 c0 -5 -2 -10 -4 -10 -3 0 -8 5 -11 10 -3 6 -1 10 4 10 6 0 11
-4 11 -10z m-40 -61 c0 -6 -4 -7 -10 -4 -5 3 -10 11 -10 16 0 6 5 7 10 4 6 -3
10 -11 10 -16z m136 -16 c-10 -10 -19 5 -10 18 6 11 8 11 12 0 2 -7 1 -15 -2
-18z m-28 -8 c-3 -3 -9 2 -12 12 -6 14 -5 15 5 6 7 -7 10 -15 7 -18z m-88 -25
c0 -5 -5 -10 -11 -10 -5 0 -7 5 -4 10 3 6 8 10 11 10 2 0 4 -4 4 -10z m42 -62
c-9 -9 -12 -7 -12 12 0 19 3 21 12 12 9 -9 9 -15 0 -24z m65 -10 c0 -7 3 -24
7 -38 l8 -25 -17 23 c-9 13 -14 29 -11 37 7 18 13 19 13 3z m598 -606 c-3 -3
-11 0 -18 7 -9 10 -8 11 6 5 10 -3 15 -9 12 -12z"/>
<path d="M319 7163 c0 -16 -2 -38 -3 -50 -1 -12 0 -27 4 -33 4 -6 7 8 8 32 1
23 5 50 8 60 3 10 1 18 -5 18 -6 0 -11 -12 -12 -27z"/>
<path d="M320 6924 c0 -19 4 -33 9 -29 12 7 11 65 -1 65 -4 0 -8 -16 -8 -36z"/>
<path d="M3220 10049 c0 -5 5 -7 10 -4 6 3 10 8 10 11 0 2 -4 4 -10 4 -5 0
-10 -5 -10 -11z"/>
<path d="M3253 10043 c-3 -10 -8 -22 -10 -28 -3 -5 3 -1 11 9 16 20 21 36 11
36 -3 0 -8 -8 -12 -17z"/>
<path d="M2705 9960 c3 -5 8 -10 11 -10 2 0 4 5 4 10 0 6 -5 10 -11 10 -5 0
-7 -4 -4 -10z"/>
<path d="M1855 9550 c3 -5 8 -10 11 -10 2 0 4 5 4 10 0 6 -5 10 -11 10 -5 0
-7 -4 -4 -10z"/>
<path d="M4213 9344 c-7 -7 -9 -15 -4 -18 5 -3 14 1 20 8 15 18 0 28 -16 10z"/>
<path d="M4078 8443 c7 -3 16 -2 19 1 4 3 -2 6 -13 5 -11 0 -14 -3 -6 -6z"/>
<path d="M3861 8413 c-23 -3 -30 -7 -22 -13 9 -5 -1 -10 -28 -15 -23 -4 -45
-5 -48 -1 -3 3 -12 -1 -19 -9 -8 -8 -21 -12 -29 -8 -9 3 -23 -1 -32 -8 -12
-10 -15 -10 -9 -1 4 6 2 12 -3 12 -6 0 -11 -4 -11 -9 0 -5 -21 -12 -47 -16
-68 -11 -73 -13 -91 -21 -59 -25 -118 -42 -126 -34 -5 5 -27 -1 -52 -12 -36
-18 -43 -26 -41 -49 2 -23 5 -26 25 -18 13 5 37 9 53 9 16 0 29 5 29 11 0 5 4
8 9 5 5 -4 21 -2 34 3 14 6 47 12 74 15 59 6 95 13 128 26 15 6 41 10 58 10
25 0 29 3 17 11 -11 8 -8 9 15 5 19 -4 25 -3 16 2 -10 8 -10 11 -1 17 8 5 16
1 22 -9 11 -19 38 -21 38 -2 0 7 13 16 29 19 16 3 46 18 66 32 23 15 52 25 73
25 34 0 35 1 16 15 -23 18 -80 20 -87 3 -4 -10 -6 -10 -6 0 -1 6 -4 11 -8 10
-5 0 -23 -3 -42 -5z m-91 -57 c0 -2 -7 -7 -16 -10 -8 -3 -12 -2 -9 4 6 10 25
14 25 6z m-60 -41 c-7 -8 -20 -15 -29 -15 -11 0 -8 5 9 14 33 19 35 19 20 1z"/>
<path d="M2085 8350 c-2 -4 23 -10 56 -13 91 -8 175 -53 250 -135 61 -67 56
-46 -9 36 -39 49 -125 97 -192 107 -79 11 -100 12 -105 5z"/>
<path d="M1920 8340 c-19 -4 -48 -13 -65 -21 -16 -7 -34 -14 -40 -14 -23 -4
-85 -36 -85 -44 0 -12 -80 -41 -105 -38 -39 4 -17 -74 30 -111 13 -11 22 -22
19 -25 -3 -3 3 -4 13 -4 10 1 17 -4 16 -10 -2 -7 4 -13 12 -13 8 0 19 -10 26
-21 9 -17 13 -19 20 -8 6 10 9 11 9 2 0 -7 7 -13 16 -13 10 0 14 -6 11 -14 -4
-10 0 -12 14 -9 11 3 19 0 19 -8 0 -7 3 -9 6 -6 4 3 15 2 25 -4 14 -7 17 -6
13 4 -7 19 27 32 38 15 6 -10 8 -10 8 0 0 6 9 12 21 12 15 0 19 -4 15 -16 -5
-13 -4 -14 7 -6 8 7 17 9 20 5 4 -3 7 0 7 8 0 8 -15 21 -32 28 -18 8 -57 33
-87 55 l-53 40 28 23 c37 29 64 30 64 2 0 -11 10 -35 22 -51 25 -35 105 -75
120 -60 7 7 -1 12 -21 17 -21 4 -37 17 -46 36 -9 16 -19 29 -24 29 -4 0 -6 14
-3 30 2 18 10 30 19 30 17 0 43 -24 43 -39 0 -16 39 -33 61 -26 15 5 18 10 10
18 -20 20 -13 54 12 59 30 6 47 0 47 -17 0 -7 5 -15 10 -17 14 -4 -11 -68 -27
-68 -6 0 -16 -6 -20 -13 -4 -8 -17 -19 -28 -25 -19 -11 -19 -11 4 -12 30 0 91
61 91 92 0 39 11 47 63 41 31 -4 44 -9 36 -14 -16 -10 -12 -14 24 -23 20 -5
27 -3 27 9 0 8 -7 15 -15 15 -8 0 -15 9 -15 20 0 14 -7 20 -22 20 -13 1 -34 7
-48 15 -14 8 -34 14 -45 15 -12 0 -26 5 -32 11 -7 7 -36 13 -65 14 -94 4 -90
3 -86 33 2 15 8 25 13 22 6 -3 9 -8 8 -12 -2 -4 9 -2 22 4 19 8 22 14 13 20
-10 6 -10 10 2 18 18 12 -85 12 -140 0z"/>
<path d="M2680 8281 c0 -5 6 -14 14 -20 12 -10 13 -8 9 8 -5 21 -23 30 -23 12z"/>
<path d="M1640 8245 c0 -8 4 -15 9 -15 5 0 11 7 15 15 3 9 0 15 -9 15 -8 0
-15 -7 -15 -15z"/>
<path d="M3685 8202 c81 -25 147 -60 139 -74 -4 -7 -3 -8 5 -4 7 5 24 -6 42
-25 36 -38 50 -32 20 10 -44 61 -118 97 -221 106 -45 4 -44 4 15 -13z"/>
<path d="M3530 8132 c-50 -4 -161 -44 -168 -60 -8 -23 20 -93 51 -123 24 -25
37 -29 80 -29 55 0 108 24 125 57 5 10 13 37 17 60 6 41 7 41 37 31 17 -6 50
-22 74 -35 35 -20 44 -30 44 -51 0 -21 2 -24 10 -12 8 12 10 9 10 -12 0 -17
-10 -35 -30 -51 -16 -14 -30 -31 -30 -37 0 -6 -4 -9 -9 -6 -12 8 -41 -3 -41
-15 0 -5 7 -9 15 -9 8 0 17 -11 21 -25 9 -35 27 -32 22 4 -3 23 -1 27 14 23
10 -2 18 -8 18 -13 0 -20 20 -7 26 16 5 22 9 24 22 13 13 -11 14 -10 7 11 -6
20 -4 23 9 18 9 -4 15 -3 15 1 -4 23 3 33 16 28 51 -21 51 -21 31 2 -19 22
-19 22 0 23 10 1 25 1 32 0 6 -1 20 3 30 8 14 9 12 10 -15 11 -35 0 -53 17
-29 26 23 9 9 24 -22 24 -25 0 -25 1 -6 15 19 14 18 14 -3 15 -16 0 -21 4 -17
15 4 8 1 15 -4 15 -6 0 -13 8 -16 18 -5 13 -16 18 -44 17 -20 0 -43 -5 -51 -9
-8 -5 -16 -4 -21 4 -4 7 -25 14 -46 16 -69 6 -124 13 -132 16 -4 2 -23 2 -42
0z m-90 -86 c0 -27 45 -49 77 -38 16 6 21 11 11 11 -19 1 -35 38 -21 52 4 4
25 10 46 13 35 4 37 3 31 -20 -5 -18 -2 -24 10 -24 18 0 22 -15 6 -25 -5 -3
-10 -17 -10 -31 0 -14 -4 -23 -9 -19 -5 3 -26 -2 -45 -12 -28 -13 -41 -14 -60
-5 -15 7 -27 7 -33 1 -12 -12 -34 12 -49 55 -8 24 -7 37 4 58 13 22 17 24 29
13 7 -8 13 -21 13 -29z"/>
<path d="M2391 8073 c7 -10 21 -26 31 -36 21 -21 24 -47 6 -48 -7 0 3 -6 22
-13 19 -7 37 -11 38 -10 10 7 -86 124 -101 124 -5 0 -3 -8 4 -17z"/>
<path d="M2648 8033 c-7 -25 1 -43 19 -43 10 0 12 6 8 23 -10 32 -22 41 -27
20z"/>
<path d="M2040 8003 c0 -4 5 -15 10 -23 8 -13 10 -13 10 2 0 9 -4 20 -10 23
-5 3 -10 3 -10 -2z"/>
<path d="M7966 7893 c19 -65 39 -137 45 -160 9 -34 16 -43 34 -43 19 0 26 12
54 112 43 147 46 153 61 98 48 -183 57 -205 80 -205 21 0 27 14 70 155 36 123
43 156 32 158 -22 6 -27 -5 -62 -135 -18 -68 -36 -123 -39 -123 -4 0 -22 59
-40 130 -30 115 -36 130 -55 130 -18 0 -25 -15 -55 -122 -19 -68 -37 -129 -41
-136 -3 -7 -22 47 -41 120 -30 113 -38 133 -56 136 -20 3 -19 -1 13 -115z"/>
<path d="M8410 7850 l0 -160 80 0 c63 0 80 3 80 15 0 10 -16 15 -62 17 l-63 3
0 55 0 55 58 3 c42 2 57 7 57 17 0 12 -14 15 -61 15 l-60 0 3 53 3 52 63 3
c46 2 62 7 62 17 0 12 -17 15 -80 15 l-80 0 0 -160z"/>
<path d="M8780 7850 c0 -136 2 -160 15 -160 12 0 15 14 15 65 l0 65 45 0 c99
0 149 52 124 128 -14 43 -57 62 -139 62 l-60 0 0 -160z m133 121 c49 -19 48
-90 -2 -110 -16 -7 -44 -11 -62 -9 -33 3 -34 4 -37 52 -2 27 -1 55 2 62 6 16
63 19 99 5z"/>
<path d="M9050 7850 c0 -136 2 -160 15 -160 12 0 15 14 15 65 0 63 1 65 25 65
21 0 34 -13 66 -65 32 -51 47 -65 65 -65 l24 0 -27 43 c-15 23 -33 49 -40 58
-20 23 -16 36 13 43 37 10 59 66 43 113 -14 44 -56 63 -139 63 l-60 0 0 -160z
m133 121 c49 -19 48 -90 -2 -110 -16 -7 -44 -11 -62 -9 -33 3 -34 4 -37 52 -2
27 -1 55 2 62 6 16 63 19 99 5z"/>
<path d="M9424 7999 c-18 -5 -46 -25 -62 -44 -107 -121 9 -298 166 -256 108
29 146 170 71 256 -43 49 -105 64 -175 44z m143 -63 c28 -30 33 -43 33 -86 0
-43 -5 -55 -34 -88 -31 -34 -39 -37 -86 -37 -47 0 -55 3 -86 37 -29 32 -34 45
-34 87 0 39 6 56 27 81 34 41 58 51 108 45 30 -3 48 -13 72 -39z"/>
<path d="M9734 7850 c79 -206 85 -208 146 -47 23 61 51 134 61 160 l19 48 -21
-3 c-18 -2 -30 -26 -68 -130 -25 -69 -49 -129 -52 -133 -6 -5 -99 235 -99 256
0 5 -11 9 -23 9 -24 0 -23 -3 37 -160z"/>
<path d="M10020 7850 c0 -136 2 -160 15 -160 13 0 15 24 15 160 0 136 -2 160
-15 160 -13 0 -15 -24 -15 -160z"/>
<path d="M10130 7850 l0 -163 78 5 c121 7 168 42 179 137 4 36 0 59 -15 94
-26 60 -64 79 -164 85 l-78 5 0 -163z m154 115 c41 -20 66 -63 66 -115 0 -81
-59 -134 -143 -128 l-42 3 -3 114 c-1 63 0 121 2 128 7 18 80 17 120 -2z"/>
<path d="M10450 7850 l0 -160 80 0 c63 0 80 3 80 15 0 10 -16 15 -62 17 l-63
3 0 55 0 55 58 3 c42 2 57 7 57 17 0 12 -14 15 -61 15 l-60 0 3 53 3 52 63 3
c46 2 62 7 62 17 0 12 -17 15 -80 15 l-80 0 0 -160z"/>
<path d="M2210 7958 c0 -7 5 -20 10 -28 8 -12 10 -9 10 13 0 15 -4 27 -10 27
-5 0 -10 -6 -10 -12z"/>
<path d="M2692 7928 c-16 -16 -15 -28 3 -28 8 0 15 9 15 20 0 23 -2 24 -18 8z"/>
<path d="M3375 7900 c-3 -5 -2 -10 4 -10 5 0 13 5 16 10 3 6 2 10 -4 10 -5 0
-13 -4 -16 -10z"/>
<path d="M3644 7855 c-4 -9 -2 -21 4 -27 8 -8 13 -7 18 5 3 9 10 14 15 11 5
-3 9 -3 9 0 0 3 -9 10 -20 16 -16 9 -22 8 -26 -5z"/>
<path d="M3584 7843 c3 -8 6 -18 7 -21 0 -4 4 2 9 13 8 19 8 19 19 -5 l11 -25
-3 25 c-1 18 -8 25 -25 26 -16 1 -21 -3 -18 -13z"/>
<path d="M1225 7750 c3 -5 8 -10 11 -10 2 0 4 5 4 10 0 6 -5 10 -11 10 -5 0
-7 -4 -4 -10z"/>
<path d="M210 7514 c0 -8 5 -12 10 -9 6 3 10 10 10 16 0 5 -4 9 -10 9 -5 0
-10 -7 -10 -16z"/>
<path d="M2655 7390 c-3 -5 -1 -10 4 -10 6 0 11 5 11 10 0 6 -2 10 -4 10 -3 0
-8 -4 -11 -10z"/>
<path d="M2650 7354 c0 -14 -3 -15 -12 -6 -15 15 -48 -12 -48 -40 0 -10 -4
-18 -10 -18 -14 0 -13 -93 1 -107 6 -6 18 -9 27 -6 11 5 13 3 7 -7 -5 -8 -4
-11 3 -6 6 4 9 13 6 21 -4 10 2 13 21 11 14 -2 23 -1 20 2 -2 3 -1 10 4 16 5
6 16 34 24 61 15 52 15 51 -26 84 -15 12 -17 11 -17 -5z"/>
<path d="M202 7320 c0 -14 2 -19 5 -12 2 6 2 18 0 25 -3 6 -5 1 -5 -13z"/>
<path d="M226 7255 c-9 -14 -12 -25 -7 -25 5 0 12 8 16 18 7 16 8 16 14 -2 7
-17 8 -18 14 -3 3 9 2 17 -4 17 -6 0 -7 5 -4 10 14 22 -14 8 -29 -15z"/>
<path d="M2339 7170 c-15 -51 -14 -82 2 -111 13 -25 112 -89 136 -88 17 0 17
1 -1 12 -36 22 -96 79 -96 91 0 7 4 6 9 -2 11 -18 24 29 15 52 -3 9 -2 16 4
16 6 0 5 14 -1 39 -9 31 -15 38 -33 37 -18 -1 -25 -10 -35 -46z"/>
<path d="M2498 6999 c-8 -5 -3 -10 15 -14 15 -4 24 -12 20 -18 -4 -6 0 -8 9
-5 8 4 21 -2 29 -13 7 -10 19 -19 26 -19 7 0 13 -4 13 -10 0 -5 3 -9 8 -8 15
3 42 -15 42 -28 0 -11 5 -12 18 -6 19 9 45 9 82 -3 21 -6 19 -1 -20 40 -25 25
-58 53 -73 61 -33 18 -152 34 -169 23z"/>
<path d="M3382 6770 c6 -23 13 -39 15 -36 7 7 -7 65 -17 71 -4 3 -3 -13 2 -35z"/>
<path d="M1842 6719 c-34 -13 -46 -54 -25 -90 10 -16 21 -29 24 -29 4 0 14 -6
21 -12 26 -24 59 -39 70 -32 6 4 8 3 4 -4 -7 -12 33 -44 45 -36 4 2 11 -1 15
-7 5 -8 3 -9 -6 -4 -9 5 -11 4 -6 -4 4 -6 11 -9 16 -6 5 3 11 1 15 -5 3 -5 -3
-10 -14 -10 -11 0 -23 5 -27 11 -4 8 -9 8 -17 0 -8 -8 -8 -14 1 -23 7 -7 12
-20 12 -29 0 -11 8 -16 25 -16 14 0 23 2 21 5 -3 3 -1 11 6 19 9 11 14 11 29
-3 11 -10 19 -27 18 -38 0 -15 -2 -17 -6 -6 -4 8 -12 20 -19 27 -10 11 -14 9
-19 -7 -3 -11 -10 -20 -15 -20 -5 0 -12 -9 -15 -20 -4 -11 -11 -17 -17 -14 -7
4 -8 2 -4 -4 9 -15 12 -15 30 3 13 13 18 13 49 -7 23 -15 34 -30 33 -45 0 -11
-4 -19 -8 -16 -5 2 -8 -2 -8 -10 0 -7 11 -19 25 -25 14 -6 25 -18 25 -26 0 -7
7 -19 15 -26 9 -7 14 -15 11 -17 -2 -2 -25 17 -51 42 -26 25 -51 43 -54 39 -3
-3 8 -17 24 -30 17 -14 41 -35 54 -47 31 -29 83 -67 91 -67 3 0 7 10 7 22 2
18 0 19 -7 8 -7 -11 -12 -12 -21 -3 -9 9 -6 13 14 18 22 6 25 10 16 26 -12 24
-30 25 -23 2 5 -14 4 -15 -4 -4 -13 18 -4 50 22 81 l21 25 -25 -21 c-28 -24
-60 -28 -60 -7 0 7 5 13 11 13 5 0 8 4 5 8 -3 5 6 19 21 32 l26 22 61 -27 c86
-38 156 -64 156 -58 0 3 7 0 15 -7 11 -9 15 -9 15 -1 0 14 -61 52 -72 45 -4
-3 -8 -1 -8 4 0 5 -26 19 -57 31 -61 23 -103 55 -103 78 0 11 -4 11 -20 1 -33
-21 -73 1 -88 47 -12 39 -14 40 -51 37 -47 -5 -60 12 -68 94 -5 51 -4 54 16
54 13 0 37 -16 57 -37 31 -34 36 -36 45 -20 12 21 47 22 77 1 14 -9 53 -18 99
-21 42 -2 87 -9 100 -14 13 -5 39 -9 57 -9 19 0 53 -7 76 -15 48 -17 74 -19
66 -6 -9 14 -92 40 -191 61 -95 19 -184 49 -150 50 11 0 15 3 10 9 -6 4 -54
13 -109 20 -54 6 -106 16 -116 21 -10 6 -33 10 -50 10 -18 0 -29 4 -25 10 3 6
-1 7 -9 4 -9 -3 -16 -2 -16 3 0 11 -58 13 -88 2z m112 -48 c25 -27 19 -95 -9
-99 -33 -4 -45 12 -52 66 -6 50 -5 52 19 52 14 0 33 -9 42 -19z m251 -31 c7
-12 -2 -12 -30 0 -19 8 -19 9 2 9 12 1 25 -3 28 -9z m-95 -239 c0 -6 -4 -13
-10 -16 -5 -3 -10 1 -10 9 0 9 5 16 10 16 6 0 10 -4 10 -9z m30 -21 c0 -5 -4
-10 -10 -10 -5 0 -10 5 -10 10 0 6 5 10 10 10 6 0 10 -4 10 -10z m34 -34 c-6
-15 -24 -23 -24 -11 0 8 24 34 28 30 1 -1 0 -10 -4 -19z m-28 -53 c-10 -10
-19 5 -10 18 6 11 8 11 12 0 2 -7 1 -15 -2 -18z"/>
<path d="M3120 6609 c-41 -21 -92 -44 -113 -51 -32 -10 -38 -16 -43 -48 -9
-56 -55 -134 -81 -138 -25 -4 -47 -27 -39 -41 4 -6 15 -7 25 -3 27 10 111 85
111 99 0 7 10 18 22 24 33 18 50 37 43 49 -3 5 -2 10 3 10 6 0 33 21 61 46 28
25 51 43 51 39 0 -4 16 3 35 15 19 12 40 18 46 14 7 -4 10 -1 7 7 -8 26 -53
18 -128 -22z"/>
<path d="M3038 6603 c6 -2 18 -2 25 0 6 3 1 5 -13 5 -14 0 -19 -2 -12 -5z"/>
<path d="M2965 6580 l-20 -9 20 0 c11 0 27 4 35 9 13 9 13 10 0 9 -8 0 -24 -4
-35 -9z"/>
<path d="M2658 6523 c7 -3 16 -2 19 1 4 3 -2 6 -13 5 -11 0 -14 -3 -6 -6z"/>
<path d="M2022 6336 c7 -8 15 -12 17 -11 5 6 -10 25 -20 25 -5 0 -4 -6 3 -14z"/>
<path d="M2011 6313 c7 -12 15 -20 18 -17 3 2 -3 12 -13 22 -17 16 -18 16 -5
-5z"/>
<path d="M2728 6310 c-5 -16 -109 -50 -156 -52 -49 -1 -65 -14 -27 -24 31 -8
143 17 210 47 47 21 49 22 25 29 -36 11 -48 11 -52 0z"/>
<path d="M2913 6243 c4 -3 2 -12 -4 -20 -9 -9 -8 -13 0 -13 6 0 11 2 11 4 0 2
3 11 6 20 4 10 1 16 -7 16 -7 0 -9 -3 -6 -7z"/>
<path d="M2880 6189 c0 -5 5 -7 10 -4 6 3 10 8 10 11 0 2 -4 4 -10 4 -5 0 -10
-5 -10 -11z"/>
<path d="M6057 5871 c-20 -66 -37 -125 -37 -131 0 -12 373 -691 377 -686 3 2
-295 928 -301 933 -1 1 -19 -51 -39 -116z"/>
<path d="M2755 5215 c4 -22 25 -94 47 -160 21 -66 39 -131 39 -145 -1 -14 -1
-39 -1 -57 0 -18 13 -67 29 -110 42 -115 59 -226 34 -216 -15 6 1 -43 41 -126
15 -32 22 -59 17 -64 -15 -15 -82 -27 -174 -31 -74 -3 -91 -6 -108 -25 -11
-12 -17 -26 -14 -31 4 -6 3 -9 -2 -8 -4 2 -9 0 -11 -4 -5 -17 -2 -28 9 -28 5
0 8 4 5 8 -3 5 10 9 29 10 20 1 43 6 53 11 25 14 159 8 174 -7 7 -7 18 -12 25
-12 25 0 113 -83 113 -106 0 -8 4 -14 10 -14 13 0 39 -96 40 -150 0 -25 2 -72
3 -105 2 -33 -1 -70 -6 -82 -7 -16 -6 -27 3 -38 10 -12 10 -15 0 -15 -8 0 -9
-4 -3 -12 5 -7 9 -25 8 -40 0 -16 3 -28 8 -28 5 0 7 -7 4 -15 -4 -8 -1 -17 5
-21 7 -4 6 -9 -2 -14 -9 -6 -9 -12 0 -30 9 -16 9 -25 1 -33 -13 -13 -15 -31
-3 -23 4 2 8 -13 8 -34 1 -26 -3 -37 -11 -34 -9 4 -11 -4 -8 -23 8 -46 1 -188
-9 -198 -9 -10 1 -197 12 -225 5 -14 17 -54 25 -90 18 -74 20 -79 28 -100 13
-32 35 -257 38 -390 1 -47 5 -93 10 -102 6 -11 5 -19 -2 -24 -8 -5 -8 -9 1
-14 6 -4 12 -26 13 -48 1 -23 4 -42 8 -42 3 0 6 -15 7 -32 0 -18 3 -55 6 -83
3 -27 7 -66 9 -85 5 -51 36 -127 78 -190 19 -30 67 -102 105 -160 l69 -105 7
120 c5 84 3 145 -7 205 -7 47 -19 126 -25 175 -6 50 -22 140 -35 200 -26 126
-50 308 -42 328 3 8 -1 117 -9 243 -14 224 -12 406 7 508 11 57 2 95 -76 341
-29 94 -63 206 -74 250 -21 85 -65 330 -76 430 -4 33 -16 92 -26 130 -61 221
-71 257 -84 282 -8 15 -15 44 -15 63 0 29 -10 46 -50 90 -85 92 -114 131 -175
235 -86 147 -88 148 -80 100z m125 -416 c0 -6 -4 -7 -10 -4 -5 3 -10 11 -10
16 0 6 5 7 10 4 6 -3 10 -11 10 -16z"/>
<path d="M9665 4950 c-4 -6 -3 -16 3 -22 6 -6 12 -6 17 2 4 6 3 16 -3 22 -6 6
-12 6 -17 -2z"/>
<path d="M10155 4950 c-4 -6 -3 -16 3 -22 6 -6 12 -6 17 2 4 6 3 16 -3 22 -6
6 -12 6 -17 -2z"/>
<path d="M10750 4840 c0 -67 4 -110 10 -110 6 0 10 43 10 110 0 67 -4 110 -10
110 -6 0 -10 -43 -10 -110z"/>
<path d="M7600 4835 l0 -105 45 0 c25 0 45 5 45 10 0 6 -16 10 -35 10 l-35 0
0 95 c0 57 -4 95 -10 95 -6 0 -10 -42 -10 -105z"/>
<path d="M8630 4835 c0 -63 4 -105 10 -105 6 0 10 42 10 105 0 63 -4 105 -10
105 -6 0 -10 -42 -10 -105z"/>
<path d="M7765 4889 c-31 -18 -45 -40 -45 -72 0 -62 54 -100 110 -77 36 15 50
37 50 78 0 57 -67 98 -115 71z m73 -31 c7 -7 12 -26 12 -43 0 -38 -16 -55 -50
-55 -34 0 -50 17 -50 55 0 38 16 55 50 55 14 0 31 -5 38 -12z"/>
<path d="M7920 4815 c0 -68 3 -85 15 -85 10 0 15 16 17 63 3 56 5 62 26 65 14
2 22 10 22 24 0 19 -1 20 -25 4 -22 -14 -25 -15 -25 -1 0 8 -7 15 -15 15 -12
0 -15 -16 -15 -85z"/>
<path d="M8055 4877 c-22 -19 -29 -33 -29 -62 0 -71 84 -109 133 -60 20 19 5
32 -19 17 -30 -18 -68 -15 -80 8 -10 19 -8 20 55 20 62 0 65 1 65 24 0 33 -29
65 -66 72 -24 4 -37 0 -59 -19z m83 -19 c22 -22 13 -28 -38 -28 -48 0 -50 1
-40 20 12 23 59 27 78 8z"/>
<path d="M8220 4815 c0 -69 3 -85 15 -85 12 0 15 13 15 58 0 62 11 82 45 82
34 0 45 -20 45 -82 0 -44 3 -58 15 -58 11 0 15 16 17 68 l3 67 35 0 35 0 3
-67 c2 -52 6 -68 17 -68 12 0 15 15 15 70 0 63 -2 71 -25 86 -28 18 -72 12
-81 -11 -5 -12 -11 -10 -36 8 -28 21 -30 21 -59 5 -24 -14 -29 -15 -29 -3 0 8
-7 15 -15 15 -12 0 -15 -16 -15 -85z"/>
<path d="M8700 4775 c0 -104 2 -125 15 -125 12 0 15 13 15 56 0 55 0 55 22 40
30 -21 50 -20 82 5 21 16 26 29 26 64 0 35 -5 48 -26 64 -32 25 -52 26 -82 5
-20 -14 -22 -14 -22 0 0 9 -7 16 -15 16 -13 0 -15 -21 -15 -125z m126 71 c13
-22 14 -29 2 -53 -11 -23 -20 -28 -48 -28 -29 0 -36 5 -44 27 -23 66 52 111
90 54z"/>
<path d="M8922 4884 c-36 -25 -25 -56 26 -72 30 -10 42 -19 42 -33 0 -22 -30
-26 -60 -7 -29 18 -39 -1 -11 -23 28 -23 49 -24 79 -3 36 25 25 56 -25 72 -31
10 -43 19 -43 33 0 22 30 26 60 7 29 -18 39 1 11 23 -28 23 -49 24 -79 3z"/>
<path d="M9060 4851 c0 -64 14 -98 44 -113 20 -9 30 -8 51 6 22 14 25 14 25 1
0 -8 7 -15 15 -15 12 0 15 16 15 85 0 69 -3 85 -15 85 -12 0 -15 -13 -15 -58
0 -62 -11 -82 -45 -82 -34 0 -45 20 -45 82 0 45 -3 58 -15 58 -11 0 -15 -12
-15 -49z"/>
<path d="M9260 4815 c0 -69 3 -85 15 -85 12 0 15 13 15 58 0 62 11 82 45 82
34 0 45 -20 45 -82 0 -44 3 -58 15 -58 11 0 15 16 17 68 l3 67 35 0 35 0 3
-67 c2 -52 6 -68 17 -68 12 0 15 15 15 70 0 63 -2 71 -25 86 -28 18 -72 12
-81 -11 -5 -12 -11 -10 -36 8 -28 21 -30 21 -59 5 -24 -14 -29 -15 -29 -3 0 8
-7 15 -15 15 -12 0 -15 -16 -15 -85z"/>
<path d="M9660 4815 c0 -69 3 -85 15 -85 12 0 15 16 15 85 0 69 -3 85 -15 85
-12 0 -15 -16 -15 -85z"/>
<path d="M9750 4880 c-11 -11 -20 -24 -20 -29 0 -18 31 -41 54 -41 27 0 51
-24 41 -40 -8 -13 -52 -13 -60 0 -3 6 -13 10 -21 10 -25 0 2 -37 32 -44 33 -9
61 0 74 24 15 29 2 47 -43 62 -49 15 -57 41 -14 46 15 2 27 -1 27 -7 0 -6 7
-11 15 -11 25 0 17 30 -11 40 -37 14 -52 12 -74 -10z"/>
<path d="M10000 4880 c-11 -11 -20 -24 -20 -29 0 -18 31 -41 54 -41 27 0 51
-24 41 -40 -8 -13 -52 -13 -60 0 -3 6 -13 10 -21 10 -25 0 2 -37 32 -44 33 -9
61 0 74 24 15 29 2 47 -43 62 -49 15 -57 41 -14 46 15 2 27 -1 27 -7 0 -6 7
-11 15 -11 25 0 17 30 -11 40 -37 14 -52 12 -74 -10z"/>
<path d="M10150 4815 c0 -69 3 -85 15 -85 12 0 15 16 15 85 0 69 -3 85 -15 85
-12 0 -15 -16 -15 -85z"/>
<path d="M10230 4815 c0 -69 3 -85 15 -85 12 0 15 13 15 58 0 62 11 82 45 82
34 0 45 -20 45 -82 0 -44 3 -58 15 -58 11 0 15 16 17 68 l3 67 35 0 35 0 3
-67 c2 -52 6 -68 17 -68 12 0 15 15 15 70 0 63 -2 71 -25 86 -28 18 -72 12
-81 -11 -5 -12 -11 -10 -36 8 -28 21 -30 21 -59 5 -24 -14 -29 -15 -29 -3 0 8
-7 15 -15 15 -12 0 -15 -16 -15 -85z"/>
<path d="M10540 4775 c0 -104 2 -125 15 -125 12 0 15 13 15 56 0 55 0 55 22
40 30 -21 50 -20 82 5 21 16 26 29 26 64 0 35 -5 48 -26 64 -32 25 -52 26 -82
5 -20 -14 -22 -14 -22 0 0 9 -7 16 -15 16 -13 0 -15 -21 -15 -125z m126 71
c13 -22 14 -29 2 -53 -11 -23 -20 -28 -48 -28 -29 0 -36 5 -44 27 -23 66 52
111 90 54z"/>
<path d="M10810 4895 c0 -2 14 -39 30 -81 31 -78 31 -81 5 -146 -5 -12 -2 -18
7 -18 9 0 34 47 66 126 39 94 47 125 35 122 -8 -2 -24 -28 -35 -58 -11 -30
-24 -58 -27 -63 -4 -4 -18 22 -30 58 -14 38 -29 65 -37 65 -8 0 -14 -2 -14 -5z"/>
<path d="M10052 4491 c-28 -18 -38 -56 -34 -138 3 -63 8 -83 18 -83 11 0 14
17 14 70 0 56 3 70 15 70 8 0 15 7 15 15 0 8 -7 15 -15 15 -8 0 -15 5 -15 10
0 6 7 13 15 16 8 4 15 12 15 20 0 16 -9 18 -28 5z"/>
<path d="M8020 4450 l0 -39 -29 16 c-24 14 -33 15 -59 4 -63 -26 -63 -115 1
-151 25 -14 30 -13 57 2 25 14 30 15 30 3 0 -8 7 -15 15 -15 12 0 15 19 15
110 0 91 -3 110 -15 110 -11 0 -15 -11 -15 -40z m-9 -64 c16 -35 4 -74 -26
-82 -34 -8 -53 1 -67 30 -9 20 -8 30 6 51 23 34 72 35 87 1z"/>
<path d="M10320 4380 c0 -91 3 -110 15 -110 12 0 15 13 15 58 0 62 11 82 45
82 34 0 45 -20 45 -82 0 -45 3 -58 15 -58 18 0 21 82 5 124 -14 39 -53 53 -85
32 l-25 -16 0 40 c0 29 -4 40 -15 40 -12 0 -15 -19 -15 -110z"/>
<path d="M9190 4460 c0 -11 -4 -20 -10 -20 -5 0 -10 -7 -10 -15 0 -8 5 -15 10
-15 6 0 10 -26 10 -58 0 -60 11 -82 42 -82 24 0 23 26 -2 33 -17 4 -20 14 -20
56 0 44 3 51 20 51 11 0 20 7 20 15 0 8 -9 15 -20 15 -13 0 -20 7 -20 20 0 11
-4 20 -10 20 -5 0 -10 -9 -10 -20z"/>
<path d="M9630 4460 c0 -11 -4 -20 -10 -20 -5 0 -10 -7 -10 -15 0 -8 5 -15 10
-15 6 0 10 -24 10 -54 0 -36 5 -60 16 -70 20 -20 54 -21 54 -1 0 8 -9 15 -20
15 -18 0 -20 7 -20 55 0 48 2 55 20 55 11 0 20 7 20 15 0 8 -9 15 -20 15 -13
0 -20 7 -20 20 0 11 -7 20 -15 20 -8 0 -15 -9 -15 -20z"/>
<path d="M10220 4460 c0 -11 -4 -20 -10 -20 -5 0 -10 -7 -10 -15 0 -8 5 -15
10 -15 6 0 10 -26 10 -58 0 -60 11 -82 42 -82 24 0 23 26 -2 33 -17 4 -20 14
-20 56 0 44 3 51 20 51 11 0 20 7 20 15 0 8 -9 15 -20 15 -13 0 -20 7 -20 20
0 11 -4 20 -10 20 -5 0 -10 -9 -10 -20z"/>
<path d="M8100 4375 c0 -90 34 -125 93 -94 16 9 22 9 25 0 2 -6 8 -11 13 -11
5 0 9 38 9 85 0 50 -4 85 -10 85 -5 0 -10 -24 -10 -53 0 -66 -16 -90 -55 -85
-30 3 -30 4 -33 71 -2 51 -6 67 -17 67 -12 0 -15 -15 -15 -65z"/>
<path d="M8300 4355 c0 -50 4 -85 10 -85 6 0 10 24 10 53 0 66 16 90 55 85 30
-3 30 -4 33 -70 2 -52 6 -68 17 -68 12 0 15 14 15 58 0 62 11 82 45 82 34 0
45 -20 45 -82 0 -45 3 -58 15 -58 11 0 15 12 15 53 0 74 -8 94 -42 108 -25 10
-33 9 -58 -9 -23 -17 -29 -19 -34 -7 -9 23 -53 29 -81 11 -22 -14 -25 -15 -25
-1 0 8 -4 15 -10 15 -6 0 -10 -35 -10 -85z"/>
<path d="M8610 4355 c0 -50 4 -85 10 -85 6 0 10 23 10 51 0 65 13 89 49 89 35
0 41 -14 41 -86 0 -41 4 -54 15 -54 12 0 15 13 15 58 0 62 11 82 45 82 34 0
45 -20 45 -82 0 -45 3 -58 15 -58 12 0 15 13 15 60 0 51 -4 65 -25 85 -29 30
-45 31 -75 7 -23 -18 -24 -18 -42 0 -22 22 -46 23 -76 2 -20 -14 -22 -14 -22
0 0 9 -4 16 -10 16 -6 0 -10 -35 -10 -85z"/>
<path d="M8900 4436 c0 -2 14 -40 31 -84 29 -77 29 -82 15 -117 -19 -45 -19
-45 -3 -45 8 0 35 54 65 126 39 94 47 125 35 122 -8 -2 -24 -28 -35 -58 -11
-30 -24 -58 -27 -63 -4 -4 -18 22 -30 58 -14 38 -29 65 -37 65 -8 0 -14 -2
-14 -4z"/>
<path d="M9323 4430 c-43 -18 -58 -90 -25 -129 28 -34 74 -37 108 -7 22 19 25
25 12 26 -9 0 -20 -4 -23 -10 -14 -23 -85 -5 -85 22 0 4 28 8 63 10 59 3 62 4
59 28 -2 29 -45 70 -70 69 -9 0 -27 -4 -39 -9z m77 -40 c10 -19 8 -20 -40 -20
-51 0 -60 6 -38 28 19 19 66 15 78 -8z"/>
<path d="M9483 4397 l26 -43 -25 -42 c-18 -29 -21 -42 -12 -42 8 0 22 14 32
31 l19 31 19 -31 c11 -17 27 -31 35 -31 12 0 9 9 -10 43 l-26 43 25 42 c18 29
21 42 12 42 -8 0 -22 -14 -32 -31 l-19 -31 -19 31 c-11 17 -27 31 -35 31 -12
0 -9 -9 10 -43z"/>
<path d="M9865 4429 c-31 -18 -45 -40 -45 -72 0 -62 54 -100 110 -77 36 15 50
37 50 78 0 57 -67 98 -115 71z m73 -31 c7 -7 12 -26 12 -43 0 -38 -16 -55 -50
-55 -34 0 -50 17 -50 55 0 38 16 55 50 55 14 0 31 -5 38 -12z"/>
<path d="M10535 4417 c-22 -19 -29 -33 -29 -62 0 -71 84 -109 133 -60 20 19 5
32 -19 17 -30 -18 -68 -15 -80 8 -10 19 -8 20 55 20 62 0 65 1 65 24 0 33 -29
65 -66 72 -24 4 -37 0 -59 -19z m83 -19 c22 -22 13 -28 -38 -28 -48 0 -50 1
-40 20 12 23 59 27 78 8z"/>
<path d="M2297 4032 c49 -39 79 -57 98 -60 10 -1 28 -8 40 -16 30 -19 95 -9
95 15 0 13 -5 17 -17 12 -12 -5 -14 -3 -8 7 6 10 2 11 -17 7 -20 -5 -27 -3
-31 12 -3 15 -12 17 -48 14 -24 -2 -64 3 -89 11 -43 15 -44 15 -23 -2z"/>
<path d="M7774 4029 c-10 -17 13 -36 27 -22 12 12 4 33 -11 33 -5 0 -12 -5
-16 -11z"/>
<path d="M8164 4026 c-8 -22 3 -33 18 -18 9 9 9 15 0 24 -9 9 -13 7 -18 -6z"/>
<path d="M10665 4030 c-4 -6 -3 -16 3 -22 6 -6 12 -6 17 2 4 6 3 16 -3 22 -6
6 -12 6 -17 -2z"/>
<path d="M9250 3989 c0 -39 0 -40 -22 -25 -31 22 -52 20 -84 -8 -21 -18 -28
-32 -28 -61 0 -29 7 -43 28 -61 32 -28 53 -30 84 -8 20 14 22 14 22 0 0 -9 7
-16 15 -16 12 0 15 19 15 110 0 91 -3 110 -15 110 -11 0 -15 -11 -15 -41z m-8
-64 c8 -18 9 -35 2 -53 -8 -22 -15 -27 -44 -27 -27 0 -38 6 -49 26 -13 24 -13
29 2 53 24 36 73 36 89 1z"/>
<path d="M8060 4000 c0 -11 -4 -20 -10 -20 -5 0 -10 -7 -10 -15 0 -8 5 -15 10
-15 6 0 10 -26 10 -58 0 -60 11 -82 42 -82 24 0 23 26 -2 33 -17 4 -20 14 -20
56 0 44 3 51 20 51 11 0 20 7 20 15 0 8 -9 15 -20 15 -13 0 -20 7 -20 20 0 11
-4 20 -10 20 -5 0 -10 -9 -10 -20z"/>
<path d="M9430 4000 c0 -11 -4 -20 -10 -20 -5 0 -10 -7 -10 -15 0 -8 5 -15 10
-15 6 0 10 -28 10 -64 0 -65 7 -76 46 -76 21 0 17 27 -6 33 -17 4 -20 14 -20
56 0 44 3 51 20 51 11 0 20 7 20 15 0 8 -9 15 -20 15 -13 0 -20 7 -20 20 0 11
-4 20 -10 20 -5 0 -10 -9 -10 -20z"/>
<path d="M10450 4000 c0 -11 -4 -20 -10 -20 -5 0 -10 -7 -10 -15 0 -8 5 -15
10 -15 6 0 10 -26 10 -58 0 -60 11 -82 42 -82 24 0 23 26 -2 33 -17 4 -20 14
-20 56 0 44 3 51 20 51 11 0 20 7 20 15 0 8 -9 15 -20 15 -13 0 -20 7 -20 20
0 11 -4 20 -10 20 -5 0 -10 -9 -10 -20z"/>
<path d="M10560 4000 c0 -11 -4 -20 -10 -20 -5 0 -10 -7 -10 -15 0 -8 5 -15
10 -15 6 0 10 -28 10 -64 0 -65 7 -76 46 -76 21 0 17 27 -6 33 -17 4 -20 14
-20 56 0 44 3 51 20 51 11 0 20 7 20 15 0 8 -9 15 -20 15 -13 0 -20 7 -20 20
0 11 -4 20 -10 20 -5 0 -10 -9 -10 -20z"/>
<path d="M7460 3855 c0 -77 4 -125 10 -125 6 0 10 25 10 55 0 30 2 55 5 55 3
0 17 -7 30 -16 64 -42 136 57 90 123 -20 29 -62 38 -91 18 -29 -19 -34 -19
-34 0 0 8 -4 15 -10 15 -6 0 -10 -48 -10 -125z m122 70 c8 -18 9 -35 2 -53 -8
-22 -15 -27 -44 -27 -27 0 -38 6 -49 26 -13 24 -13 29 2 53 24 36 73 36 89 1z"/>
<path d="M7660 3895 c0 -68 3 -85 15 -85 10 0 15 16 17 63 3 56 5 62 26 65 14
2 22 10 22 24 0 19 -1 20 -25 4 -22 -14 -25 -15 -25 -1 0 8 -7 15 -15 15 -12
0 -15 -16 -15 -85z"/>
<path d="M7780 3895 c0 -50 4 -85 10 -85 6 0 10 35 10 85 0 50 -4 85 -10 85
-6 0 -10 -35 -10 -85z"/>
<path d="M7860 3895 c0 -50 4 -85 10 -85 6 0 10 24 10 53 0 66 16 90 55 85 30
-3 30 -4 33 -70 2 -52 6 -68 17 -68 12 0 15 15 15 65 0 52 -4 69 -20 85 -24
24 -48 25 -78 4 -20 -14 -22 -14 -22 0 0 9 -4 16 -10 16 -6 0 -10 -35 -10 -85z"/>
<path d="M8160 3895 c0 -69 3 -85 15 -85 12 0 15 16 15 85 0 69 -3 85 -15 85
-12 0 -15 -16 -15 -85z"/>
<path d="M8240 3895 c0 -69 3 -85 15 -85 12 0 15 13 15 58 0 62 11 82 45 82
34 0 45 -20 45 -82 0 -45 3 -58 15 -58 18 0 21 82 5 124 -14 39 -53 53 -85 32
-22 -14 -25 -14 -25 -1 0 8 -7 15 -15 15 -12 0 -15 -16 -15 -85z"/>
<path d="M8454 3956 c-21 -18 -28 -32 -28 -61 0 -29 7 -43 28 -61 32 -28 53
-30 84 -8 21 15 22 14 22 -13 0 -16 -5 -34 -12 -41 -17 -17 -58 -15 -79 4 -28
25 -44 13 -21 -16 25 -31 92 -34 119 -7 26 25 33 227 9 227 -9 0 -16 -7 -16
-16 0 -14 -2 -14 -22 0 -31 22 -52 20 -84 -8z m98 -31 c8 -18 9 -35 2 -53 -8
-22 -15 -27 -44 -27 -27 0 -38 6 -49 26 -13 24 -13 29 2 53 24 36 73 36 89 1z"/>
<path d="M8744 3956 c-21 -18 -28 -32 -28 -61 0 -29 7 -43 28 -61 32 -28 53
-30 84 -8 20 14 22 14 22 0 0 -9 7 -16 15 -16 12 0 15 16 15 85 0 69 -3 85
-15 85 -8 0 -15 -7 -15 -16 0 -14 -2 -14 -22 0 -31 22 -52 20 -84 -8z m98 -31
c8 -18 9 -35 2 -53 -8 -22 -15 -27 -44 -27 -27 0 -38 6 -49 26 -13 24 -13 29
2 53 24 36 73 36 89 1z"/>
<path d="M8930 3895 c0 -69 3 -85 15 -85 12 0 15 13 15 58 0 63 11 82 47 82
30 0 43 -28 43 -89 0 -39 4 -51 15 -51 18 0 21 82 5 124 -14 39 -53 53 -85 32
-22 -14 -25 -14 -25 -1 0 8 -7 15 -15 15 -12 0 -15 -16 -15 -85z"/>
<path d="M9530 3931 c10 -27 26 -65 34 -84 13 -31 12 -39 -5 -76 -17 -38 -17
-42 -2 -39 11 2 33 45 65 122 26 66 48 121 48 123 0 2 -6 3 -13 3 -7 0 -24
-29 -36 -65 -13 -36 -26 -63 -30 -60 -3 4 -15 32 -26 63 -13 36 -26 58 -38 60
-16 3 -16 0 3 -47z"/>
<path d="M9710 3855 c0 -77 4 -125 10 -125 6 0 10 25 10 55 l0 56 31 -17 c40
-20 82 -5 99 37 28 67 -30 138 -89 108 -14 -7 -29 -15 -33 -17 -5 -2 -8 3 -8
12 0 9 -4 16 -10 16 -6 0 -10 -48 -10 -125z m122 70 c8 -18 9 -35 2 -53 -8
-22 -15 -27 -44 -27 -27 0 -38 6 -49 26 -13 24 -13 29 2 53 24 36 73 36 89 1z"/>
<path d="M9943 3970 c-43 -18 -58 -90 -25 -129 28 -34 74 -37 108 -7 22 19 25
25 12 26 -9 0 -20 -4 -23 -10 -14 -23 -85 -5 -85 22 0 4 28 8 63 10 59 3 62 4
59 28 -2 29 -45 70 -70 69 -9 0 -27 -4 -39 -9z m77 -40 c10 -19 8 -20 -40 -20
-51 0 -60 6 -38 28 19 19 66 15 78 -8z"/>
<path d="M10112 3964 c-36 -25 -25 -56 26 -72 30 -10 42 -19 42 -33 0 -22 -30
-26 -60 -7 -29 18 -39 -1 -11 -23 28 -23 49 -24 79 -3 36 25 25 56 -25 72 -31
10 -43 19 -43 33 0 22 30 26 60 7 29 -18 39 1 11 23 -28 23 -49 24 -79 3z"/>
<path d="M10275 3957 c-22 -19 -29 -33 -29 -62 0 -71 84 -109 133 -60 20 19 5
32 -19 17 -30 -18 -68 -15 -80 8 -10 19 -8 20 55 20 62 0 65 1 65 24 0 33 -29
65 -66 72 -24 4 -37 0 -59 -19z m83 -19 c22 -22 13 -28 -38 -28 -48 0 -50 1
-40 20 12 23 59 27 78 8z"/>
<path d="M10660 3895 c0 -69 3 -85 15 -85 12 0 15 16 15 85 0 69 -3 85 -15 85
-12 0 -15 -16 -15 -85z"/>
<path d="M10740 3895 c0 -69 3 -85 15 -85 12 0 15 13 15 58 0 62 11 82 45 82
34 0 45 -20 45 -82 0 -45 3 -58 15 -58 18 0 21 82 5 124 -14 39 -53 53 -85 32
-22 -14 -25 -14 -25 -1 0 8 -7 15 -15 15 -12 0 -15 -16 -15 -85z"/>
<path d="M10954 3956 c-21 -18 -28 -32 -28 -61 0 -29 7 -43 28 -61 32 -28 53
-30 84 -8 21 15 22 14 22 -13 0 -16 -5 -34 -12 -41 -17 -17 -63 -15 -78 3 -13
16 -40 20 -40 7 0 -21 44 -47 81 -47 63 0 73 19 77 140 3 91 2 105 -12 105 -9
0 -16 -7 -16 -16 0 -14 -2 -14 -22 0 -31 22 -52 20 -84 -8z m97 -30 c16 -35 4
-74 -26 -82 -34 -8 -53 1 -67 30 -9 20 -8 30 6 51 23 34 72 35 87 1z"/>
<path d="M8644 3569 c-10 -17 13 -36 27 -22 12 12 4 33 -11 33 -5 0 -12 -5
-16 -11z"/>
<path d="M9040 3529 c0 -39 0 -40 -22 -25 -32 22 -55 20 -83 -9 -17 -16 -25
-35 -25 -60 0 -25 8 -44 25 -60 28 -29 51 -31 83 -9 20 14 22 14 22 0 0 -9 7
-16 15 -16 12 0 15 19 15 110 0 91 -3 110 -15 110 -11 0 -15 -11 -15 -41z
m-12 -51 c7 -7 12 -26 12 -43 0 -38 -16 -55 -52 -55 -30 0 -48 23 -48 62 0 31
18 48 50 48 14 0 31 -5 38 -12z"/>
<path d="M9490 3540 c0 -11 -4 -20 -10 -20 -5 0 -10 -7 -10 -15 0 -8 5 -15 10
-15 6 0 10 -26 10 -58 0 -60 11 -82 42 -82 24 0 23 26 -2 33 -17 4 -20 14 -20
56 0 44 3 51 20 51 11 0 20 7 20 15 0 8 -9 15 -20 15 -13 0 -20 7 -20 20 0 11
-4 20 -10 20 -5 0 -10 -9 -10 -20z"/>
<path d="M8650 3435 c0 -50 4 -85 10 -85 6 0 10 35 10 85 0 50 -4 85 -10 85
-6 0 -10 -35 -10 -85z"/>
<path d="M8730 3435 c0 -50 4 -85 10 -85 6 0 10 24 10 53 0 66 16 90 55 85 30
-3 30 -4 33 -70 2 -52 6 -68 17 -68 12 0 15 15 15 65 0 52 -4 69 -20 85 -24
24 -48 25 -78 4 -20 -14 -22 -14 -22 0 0 9 -4 16 -10 16 -6 0 -10 -35 -10 -85z"/>
<path d="M9120 3471 c0 -64 14 -98 44 -113 20 -9 30 -8 51 6 22 14 25 14 25 1
0 -8 7 -15 15 -15 12 0 15 16 15 85 0 69 -3 85 -15 85 -12 0 -15 -13 -15 -58
0 -62 -11 -82 -45 -82 -34 0 -45 20 -45 82 0 45 -3 58 -15 58 -11 0 -15 -12
-15 -49z"/>
<path d="M9330 3500 c-11 -11 -20 -24 -20 -29 0 -18 31 -41 54 -41 27 0 51
-24 41 -40 -8 -13 -52 -13 -60 0 -3 6 -13 10 -21 10 -25 0 2 -37 32 -44 33 -9
61 0 74 24 15 29 2 47 -43 62 -49 15 -57 41 -14 46 15 2 27 -1 27 -7 0 -6 7
-11 15 -11 25 0 17 30 -11 40 -37 14 -52 12 -74 -10z"/>
<path d="M9590 3435 c0 -68 3 -85 15 -85 10 0 15 16 17 63 3 56 5 62 26 65 14
2 22 10 22 24 0 19 -1 20 -25 4 -22 -14 -25 -15 -25 -1 0 8 -7 15 -15 15 -12
0 -15 -16 -15 -85z"/>
<path d="M9690 3515 c0 -2 14 -39 30 -81 31 -78 31 -81 5 -146 -5 -12 -2 -18
7 -18 9 0 34 47 66 126 39 94 47 125 35 122 -8 -2 -24 -28 -35 -58 -11 -30
-24 -58 -27 -63 -4 -4 -18 22 -30 58 -14 38 -29 65 -37 65 -8 0 -14 -2 -14 -5z"/>
<path d="M9874 3379 c-10 -17 13 -36 27 -22 12 12 4 33 -11 33 -5 0 -12 -5
-16 -11z"/>
<path d="M7940 1496 c0 -1 4 -16 10 -32 5 -16 14 -48 20 -71 6 -25 17 -43 25
-43 8 0 19 18 26 43 18 60 27 66 35 20 14 -88 42 -84 67 12 10 37 16 69 13 72
-12 12 -25 -11 -32 -52 -3 -25 -10 -47 -14 -50 -4 -2 -12 20 -19 50 -15 67
-36 72 -52 13 -20 -74 -21 -74 -36 -15 -10 35 -21 57 -29 57 -8 0 -14 -2 -14
-4z"/>
<path d="M8160 1488 c0 -7 8 -40 18 -73 24 -79 44 -83 64 -13 l15 53 15 -50
c9 -30 22 -51 32 -53 9 -2 16 0 16 5 0 4 9 38 19 76 15 52 17 67 6 67 -7 0
-19 -24 -27 -57 l-15 -58 -12 45 c-18 67 -19 70 -34 70 -9 0 -19 -21 -26 -56
-14 -63 -22 -62 -36 3 -9 42 -35 73 -35 41z"/>
<path d="M8370 1496 c0 -1 4 -16 10 -32 5 -16 14 -48 20 -71 15 -58 35 -54 56
10 l18 52 15 -53 c20 -73 39 -66 63 21 11 38 17 71 14 74 -12 12 -25 -11 -32
-52 -3 -25 -10 -47 -14 -50 -4 -2 -12 20 -19 50 -15 65 -35 72 -50 18 -6 -21
-11 -43 -11 -50 0 -6 -4 -14 -9 -18 -5 -3 -15 20 -21 50 -7 36 -16 55 -26 55
-8 0 -14 -2 -14 -4z"/>
<path d="M8640 1495 c0 -3 9 -23 20 -45 11 -22 20 -53 20 -70 0 -20 5 -30 15
-30 9 0 15 9 15 25 0 14 11 48 25 75 20 40 22 50 10 50 -8 0 -22 -17 -31 -37
l-17 -38 -15 38 c-8 20 -21 37 -28 37 -8 0 -14 -2 -14 -5z"/>
<path d="M8806 1479 c-19 -15 -26 -30 -26 -54 0 -36 36 -75 70 -75 34 0 70 39
70 75 0 36 -36 75 -70 75 -10 0 -29 -9 -44 -21z m74 -19 c11 -11 20 -27 20
-35 0 -17 -35 -55 -50 -55 -15 0 -50 38 -50 55 0 17 35 55 50 55 6 0 19 -9 30
-20z"/>
<path d="M8952 1438 c3 -56 6 -64 30 -77 21 -12 31 -13 52 -3 24 11 26 16 26
77 0 37 -4 65 -10 65 -5 0 -10 -24 -10 -54 0 -56 -17 -83 -45 -72 -11 4 -15
21 -15 66 0 47 -3 60 -15 60 -13 0 -15 -11 -13 -62z"/>
<path d="M9100 1425 c0 -59 3 -75 14 -75 9 0 16 12 18 33 l3 32 20 -32 c10
-18 25 -33 32 -33 17 0 16 6 -4 36 -16 25 -16 27 0 36 23 12 22 55 -2 68 -11
5 -33 10 -50 10 l-31 0 0 -75z m68 43 c8 -8 9 -15 1 -25 -18 -21 -39 -15 -39
12 0 27 18 33 38 13z"/>
<path d="M9245 1484 c-24 -24 -14 -47 28 -67 20 -9 37 -22 37 -27 0 -16 -30
-24 -43 -11 -16 16 -37 14 -31 -4 16 -40 94 -23 94 20 0 18 -8 26 -35 35 -34
11 -46 32 -25 45 5 3 18 0 29 -7 27 -16 41 0 17 18 -26 18 -51 18 -71 -2z"/>
<path d="M9370 1425 c0 -43 4 -75 10 -75 6 0 10 32 10 75 0 43 -4 75 -10 75
-6 0 -10 -32 -10 -75z"/>
<path d="M9420 1490 c0 -5 9 -10 20 -10 18 0 20 -7 20 -65 0 -37 4 -65 10 -65
6 0 10 27 10 61 0 52 3 62 20 66 37 10 20 23 -30 23 -27 0 -50 -4 -50 -10z"/>
<path d="M9550 1425 l0 -75 40 0 c22 0 40 5 40 10 0 6 -11 10 -25 10 -20 0
-25 5 -25 25 0 20 5 25 25 25 14 0 25 5 25 10 0 6 -11 10 -25 10 -18 0 -25 5
-25 20 0 15 7 20 25 20 14 0 25 5 25 10 0 6 -18 10 -40 10 l-40 0 0 -75z"/>
<path d="M9670 1441 c0 -84 34 -113 88 -75 19 13 22 24 22 75 0 33 -4 59 -10
59 -5 0 -10 -24 -10 -54 0 -60 -19 -88 -48 -69 -12 7 -18 27 -20 67 -4 75 -22
72 -22 -3z"/>
<path d="M9820 1425 c0 -43 4 -75 10 -75 6 0 10 14 10 30 0 17 4 30 10 30 5 0
16 -13 25 -30 9 -16 22 -30 31 -30 13 0 12 4 -2 32 -15 28 -15 32 0 40 22 12
20 55 -3 68 -11 5 -33 10 -50 10 l-31 0 0 -75z m68 32 c4 -20 -25 -34 -40 -19
-15 15 -1 44 19 40 10 -2 19 -11 21 -21z"/>
<path d="M9950 1425 l0 -75 40 0 c22 0 40 5 40 10 0 6 -11 10 -25 10 -24 0
-25 2 -25 65 0 51 -3 65 -15 65 -12 0 -15 -15 -15 -75z"/>
<path d="M10137 1493 c-9 -2 -24 -18 -32 -34 -35 -66 39 -135 101 -94 33 22
23 31 -16 15 -26 -11 -33 -10 -50 5 -26 23 -25 57 0 80 17 15 24 16 46 7 38
-18 52 -14 25 8 -23 20 -38 22 -74 13z"/>
<path d="M10286 1479 c-19 -15 -26 -30 -26 -54 0 -36 36 -75 70 -75 34 0 70
39 70 75 0 36 -36 75 -70 75 -10 0 -29 -9 -44 -21z m74 -19 c11 -11 20 -27 20
-35 0 -17 -35 -55 -50 -55 -15 0 -50 38 -50 55 0 17 35 55 50 55 6 0 19 -9 30
-20z"/>
<path d="M10430 1426 c0 -61 3 -76 15 -76 11 0 15 12 16 43 l0 42 19 -42 c11
-24 23 -43 28 -43 5 0 19 21 30 48 l20 47 1 -47 c1 -36 5 -48 16 -48 12 0 15
15 15 75 0 96 -19 102 -56 18 l-26 -58 -23 55 c-13 30 -30 56 -39 58 -14 3
-16 -8 -16 -72z"/>
<path d="M8597 1374 c-8 -8 1 -24 14 -24 5 0 9 7 9 15 0 15 -12 20 -23 9z"/>
<path d="M10047 1374 c-8 -8 1 -24 14 -24 5 0 9 7 9 15 0 15 -12 20 -23 9z"/>
</g>
</svg>
